<?xml version="1.0" encoding="UTF-8"?>
<svg version="1.1" xmlns="http://www.w3.org/2000/svg" width="200" height="200">
<path d="M0 0 C0.78052734 -0.00322266 1.56105469 -0.00644531 2.36523438 -0.00976562 C8.17033019 0.04533019 8.17033019 0.04533019 10.4375 2.3125 C10.93994141 4.28369141 10.93994141 4.28369141 11.2890625 6.6640625 C11.41796875 7.51484375 11.546875 8.365625 11.6796875 9.2421875 C11.80601563 10.13164062 11.93234375 11.02109375 12.0625 11.9375 C12.26359375 13.28328125 12.26359375 13.28328125 12.46875 14.65625 C12.7990559 16.87401817 13.1216425 19.09263575 13.4375 21.3125 C14.05165771 21.43874756 14.66581543 21.56499512 15.29858398 21.69506836 C16.10626221 21.86659424 16.91394043 22.03812012 17.74609375 22.21484375 C18.54587646 22.38234131 19.34565918 22.54983887 20.16967773 22.72241211 C22.4375 23.3125 22.4375 23.3125 25.5 24.875 C28.39359505 25.63595249 28.39359505 25.63595249 30.3359375 24.08984375 C32.45738365 22.24069049 34.44397743 20.29836989 36.4375 18.3125 C37.76040654 17.15464418 39.09296529 16.00766863 40.4375 14.875 C41.4275 14.029375 42.4175 13.18375 43.4375 12.3125 C47.80679176 14.54362771 51.63297304 17.07957657 55.4375 20.1875 C56.22125 20.82429688 57.005 21.46109375 57.8125 22.1171875 C59.4375 24.3125 59.4375 24.3125 59.41796875 27.21875 C58.00450018 31.67877831 55.45341237 34.96228363 52.73828125 38.7265625 C51.14257733 41.16687914 51.14257733 41.16687914 52.03515625 43.359375 C52.49792969 44.00390625 52.96070313 44.6484375 53.4375 45.3125 C53.93507812 46.06789062 54.43265625 46.82328125 54.9453125 47.6015625 C56.02756276 49.16481288 57.11090483 50.72730792 58.1953125 52.2890625 C59.4375 54.3125 59.4375 54.3125 59.4375 56.3125 C60.34628906 56.20421875 60.34628906 56.20421875 61.2734375 56.09375 C63.99251685 55.79255967 66.71141531 55.54183141 69.4375 55.3125 C70.35660156 55.23257813 71.27570313 55.15265625 72.22265625 55.0703125 C74.71358897 54.94558244 76.97494403 54.9160658 79.4375 55.3125 C81.375 57.25 81.375 57.25 82.4375 60.3125 C82.84742188 61.38177734 82.84742188 61.38177734 83.265625 62.47265625 C86.27247438 70.65948707 86.27247438 70.65948707 85.4375 74.3125 C81.96341049 77.45632871 78.3284915 79.53004257 74.125 81.5625 C72.52205078 82.34367187 72.52205078 82.34367187 70.88671875 83.140625 C70.07847656 83.52734375 69.27023438 83.9140625 68.4375 84.3125 C67.7039604 89.52878158 67.38217865 94.11989894 68.4375 99.3125 C71.94701376 103.01431588 75.8828997 105.09922034 80.4375 107.3125 C81.4275 107.9725 82.4175 108.6325 83.4375 109.3125 C83.13229473 116.027016 80.26421135 124.48578865 75.4375 129.3125 C71.34865825 129.20267574 67.47828849 128.73827711 63.6875 127.1875 C60.76410144 126.05062278 59.41324594 126.36689399 56.4375 127.3125 C54.37213311 129.2123721 54.37213311 129.2123721 52.6875 131.625 C52.09453125 132.40488281 51.5015625 133.18476563 50.890625 133.98828125 C49.45095661 136.29097666 48.62503518 137.61604824 48.4375 140.3125 C49.41046034 143.23492451 49.41046034 143.23492451 50.875 146.25 C54.07181258 153.14013283 54.07181258 153.14013283 53.4375 157.3125 C51.51612286 159.79452214 48.98105254 161.49284351 46.4375 163.3125 C45.82777344 163.75464844 45.21804687 164.19679687 44.58984375 164.65234375 C42.8125 165.8125 42.8125 165.8125 39.4375 167.3125 C34.8236934 166.2054836 32.84007924 163.68209168 29.875 160.125 C26.17425002 156.2181148 26.17425002 156.2181148 21.12109375 154.87890625 C18.14011141 155.15694356 15.3395454 155.58449548 12.4375 156.3125 C12.36402344 157.74142578 12.36402344 157.74142578 12.2890625 159.19921875 C12.17691406 161.08060547 12.17691406 161.08060547 12.0625 163 C11.99289063 164.24136719 11.92328125 165.48273438 11.8515625 166.76171875 C11.33631186 171.18023604 10.60543706 174.14456294 7.4375 177.3125 C4.93333553 177.51189483 2.56437809 177.59093043 0.0625 177.5625 C-0.61039062 177.57023438 -1.28328125 177.57796875 -1.9765625 177.5859375 C-8.65400736 177.55964835 -8.65400736 177.55964835 -11.5625 175.3125 C-12.35546875 173.5 -12.35546875 173.5 -12.75 171.3125 C-12.89566406 170.51972656 -13.04132813 169.72695312 -13.19140625 168.91015625 C-13.78970296 164.72207925 -14.22796314 160.52942512 -14.5625 156.3125 C-18.3862749 155.16610714 -21.59922714 154.68053189 -25.5625 155.3125 C-28.32578978 157.47210619 -30.51765184 159.60031471 -32.76879883 162.26098633 C-34.67195345 164.49946038 -36.27155776 166.16967381 -38.92578125 167.47265625 C-43.0922932 167.21957923 -45.65054392 164.87553083 -48.875 162.375 C-49.52017578 161.89353516 -50.16535156 161.41207031 -50.83007812 160.91601562 C-52.41767618 159.72825708 -53.99149006 158.52211388 -55.5625 157.3125 C-54.76608444 151.77896331 -52.16742707 147.29728988 -49.64453125 142.37109375 C-48.29385418 139.47938047 -48.29385418 139.47938047 -49.16015625 137.13671875 C-50.70426771 135.12808351 -52.3358937 133.41718983 -54.1875 131.6875 C-56.1015625 129.8984375 -56.1015625 129.8984375 -57.5625 128.3125 C-57.5625 127.6525 -57.5625 126.9925 -57.5625 126.3125 C-58.50351562 126.5290625 -59.44453125 126.745625 -60.4140625 126.96875 C-61.65929687 127.2471875 -62.90453125 127.525625 -64.1875 127.8125 C-66.03214844 128.23015625 -66.03214844 128.23015625 -67.9140625 128.65625 C-71.23402228 129.25341621 -74.20158451 129.43659534 -77.5625 129.3125 C-81.00046251 123.02706473 -83.30896681 117.37786889 -84.5625 110.3125 C-80.6692626 106.90591727 -76.74328461 104.07122263 -72.296875 101.42578125 C-70.40867406 100.30073892 -70.40867406 100.30073892 -68.5625 98.3125 C-68.42212461 95.55178393 -68.36779855 93.05190411 -68.5625 90.3125 C-68.56507812 89.16007812 -68.56765625 88.00765625 -68.5703125 86.8203125 C-69.18786884 83.37071054 -69.18786884 83.37071054 -71.14428711 82.00170898 C-73.26300168 80.8216232 -75.39548264 79.82887549 -77.625 78.875 C-78.38361328 78.52501953 -79.14222656 78.17503906 -79.92382812 77.81445312 C-81.79255825 76.95648269 -83.6762453 76.13122386 -85.5625 75.3125 C-85.67445692 70.53906417 -85.64953128 66.52625164 -84.1875 61.9375 C-83.80464844 60.68839844 -83.80464844 60.68839844 -83.4140625 59.4140625 C-82.5625 57.3125 -82.5625 57.3125 -80.5625 55.3125 C-74.26887769 54.61056481 -67.80820666 55.50660237 -61.5625 56.3125 C-60.43506334 54.56406882 -59.3106458 52.8136906 -58.1875 51.0625 C-57.24777344 49.60070313 -57.24777344 49.60070313 -56.2890625 48.109375 C-54.91115148 45.87728385 -53.67937358 43.68162578 -52.5625 41.3125 C-53.15160156 40.52746094 -53.74070312 39.74242187 -54.34765625 38.93359375 C-55.09917969 37.88300781 -55.85070312 36.83242188 -56.625 35.75 C-57.37910156 34.71746094 -58.13320313 33.68492188 -58.91015625 32.62109375 C-60.96921476 28.49810899 -60.97296865 26.67895083 -59.5625 22.3125 C-57.05078125 19.625 -57.05078125 19.625 -53.875 17.3125 C-52.83988281 16.52875 -51.80476563 15.745 -50.73828125 14.9375 C-47.5625 13.3125 -47.5625 13.3125 -44.53515625 13.21484375 C-40.7082953 14.62791593 -38.38818034 16.93580849 -35.6875 19.875 C-35.18992188 20.39513672 -34.69234375 20.91527344 -34.1796875 21.45117188 C-32.96221388 22.72717789 -31.76069008 24.01836944 -30.5625 25.3125 C-29.99402344 25.10753906 -29.42554688 24.90257813 -28.83984375 24.69140625 C-24.0540546 23.02157331 -19.60306799 21.84873064 -14.5625 21.3125 C-14.48902344 20.36890625 -14.48902344 20.36890625 -14.4140625 19.40625 C-13.19091748 5.40334841 -13.19091748 5.40334841 -10.23852539 1.61254883 C-7.2823155 -0.68050546 -3.58364225 -0.07434942 0 0 Z M-34.6328125 58.41015625 C-42.52538724 67.82316205 -45.98855292 79.08889449 -45.83984375 91.25 C-44.63365453 104.56904715 -38.35052654 115.78144974 -28.26953125 124.3359375 C-18.91085464 131.16925693 -7.1311563 134.52730236 4.4375 133.3125 C18.64072058 130.73522686 29.38838821 124.83695492 37.875 112.8125 C43.74846079 103.28886584 45.90728798 91.70772966 43.9765625 80.6796875 C41.14709112 68.9956351 35.22373363 57.75449246 24.74414062 51.26367188 C4.53900888 39.85091257 -17.93139764 41.48815667 -34.6328125 58.41015625 Z " fill="#F6F6F6" transform="translate(104.5625,10.6875)"/>
</svg>
