<?xml version="1.0" encoding="UTF-8"?>
<svg version="1.1" xmlns="http://www.w3.org/2000/svg" width="120" height="120">
<path d="M0 0 C0.99773438 0.02320313 1.99546875 0.04640625 3.0234375 0.0703125 C4.52777344 0.09738281 4.52777344 0.09738281 6.0625 0.125 C6.83335938 0.14820313 7.60421875 0.17140625 8.3984375 0.1953125 C9.70336219 4.35475994 10.51863455 7.84568159 10.3984375 12.1953125 C13.75368622 13.37673811 16.82524445 14.22124278 20.3984375 14.1953125 C23.33518969 12.31145565 25.33930098 9.99082897 27.3984375 7.1953125 C31.99150246 8.6813041 34.83412995 11.04545932 38.3984375 14.1953125 C36.94893295 17.9863244 35.24671184 21.5827763 33.3984375 25.1953125 C35.40858535 29.12873077 35.40858535 29.12873077 38.3984375 32.1953125 C41.30876207 32.50971253 44.0120381 32.32103262 46.9296875 32.13671875 C49.3984375 32.1953125 49.3984375 32.1953125 51.5234375 34.2578125 C52.50994579 37.56966175 53.061425 40.75778504 53.3984375 44.1953125 C51.94306182 45.03380054 50.48403377 45.86595184 49.0234375 46.6953125 C48.21132812 47.159375 47.39921875 47.6234375 46.5625 48.1015625 C44.3984375 49.1953125 44.3984375 49.1953125 42.3984375 49.1953125 C42.22061045 52.3961994 42.35774327 55.1475651 43.3984375 58.1953125 C46.1218094 60.73883909 49.0954699 62.49378374 52.3984375 64.1953125 C51.94809627 65.82254549 51.48788396 67.44704914 51.0234375 69.0703125 C50.64058594 70.42769531 50.64058594 70.42769531 50.25 71.8125 C49.3984375 74.1953125 49.3984375 74.1953125 47.3984375 76.1953125 C44.97265625 75.92578125 44.97265625 75.92578125 42.0859375 75.3828125 C38.04798948 74.86827216 38.04798948 74.86827216 34.45703125 76.43359375 C32.89068804 78.35844603 32.01636652 79.78815616 31.3984375 82.1953125 C32.5608137 85.85197676 32.5608137 85.85197676 34.3984375 89.1953125 C34.4609375 91.8828125 34.4609375 91.8828125 33.3984375 94.1953125 C30.53465944 96.66857537 28.67835327 98.16409504 24.8359375 98.2578125 C22.3984375 97.1953125 22.3984375 97.1953125 20.0234375 94.6328125 C17.52628158 91.81026584 17.52628158 91.81026584 13.5859375 91.8828125 C12.5340625 91.9859375 11.4821875 92.0890625 10.3984375 92.1953125 C10.34945312 92.89398438 10.30046875 93.59265625 10.25 94.3125 C10.17523438 95.22257812 10.10046875 96.13265625 10.0234375 97.0703125 C9.95382813 97.97523437 9.88421875 98.88015625 9.8125 99.8125 C9.3984375 102.1953125 9.3984375 102.1953125 7.3984375 104.1953125 C4.796875 104.390625 4.796875 104.390625 1.7734375 104.3203125 C0.77054688 104.30226563 -0.23234375 104.28421875 -1.265625 104.265625 C-2.03648438 104.24242188 -2.80734375 104.21921875 -3.6015625 104.1953125 C-5.19294335 100.01793776 -5.81434308 96.66370465 -5.6015625 92.1953125 C-8.84866043 91.69247629 -8.84866043 91.69247629 -12.6015625 92.1953125 C-14.24469891 93.54662331 -14.24469891 93.54662331 -15.6640625 95.2578125 C-17.1328125 96.91015625 -17.1328125 96.91015625 -18.6015625 98.1953125 C-23.4913845 98.39489707 -26.07173631 96.41368344 -29.6015625 93.1953125 C-29.01051485 88.34872173 -27.62212093 84.58783083 -25.6015625 80.1953125 C-27.0865625 79.7003125 -27.0865625 79.7003125 -28.6015625 79.1953125 C-29.03082031 78.50953125 -29.46007812 77.82375 -29.90234375 77.1171875 C-30.74345703 76.16585937 -30.74345703 76.16585937 -31.6015625 75.1953125 C-34.58485457 74.92878633 -34.58485457 74.92878633 -37.7890625 75.4453125 C-38.87574219 75.57421875 -39.96242188 75.703125 -41.08203125 75.8359375 C-41.91347656 75.95453125 -42.74492188 76.073125 -43.6015625 76.1953125 C-44.30336781 74.7856778 -44.98750208 73.36723609 -45.6640625 71.9453125 C-46.04691406 71.15640625 -46.42976563 70.3675 -46.82421875 69.5546875 C-47.71049101 66.86469531 -47.81546468 65.74775859 -46.6015625 63.1953125 C-44.75390625 62.02734375 -44.75390625 62.02734375 -42.5390625 61.0078125 C-40.31932566 59.85335483 -40.31932566 59.85335483 -38.6015625 58.1953125 C-37.86031491 54.93382311 -38.19775851 52.57717089 -38.6015625 49.1953125 C-41.9015625 47.5453125 -45.2015625 45.8953125 -48.6015625 44.1953125 C-46.8515625 34.4453125 -46.8515625 34.4453125 -44.6015625 32.1953125 C-41.78125 32.21875 -41.78125 32.21875 -38.4765625 32.5703125 C-37.38085938 32.68117187 -36.28515625 32.79203125 -35.15625 32.90625 C-34.31320313 33.00164063 -33.47015625 33.09703125 -32.6015625 33.1953125 C-32.3128125 32.2671875 -32.0240625 31.3390625 -31.7265625 30.3828125 C-30.6015625 27.1953125 -30.6015625 27.1953125 -28.6015625 24.1953125 C-28.98570313 23.66421875 -29.36984375 23.133125 -29.765625 22.5859375 C-30.24773438 21.87953125 -30.72984375 21.173125 -31.2265625 20.4453125 C-31.71382812 19.74921875 -32.20109375 19.053125 -32.703125 18.3359375 C-33.6015625 16.1953125 -33.6015625 16.1953125 -32.9453125 14.1015625 C-30.88897574 11.18443361 -28.40728193 9.39109292 -25.6015625 7.1953125 C-22.14095507 8.28293198 -20.72051944 9.04576664 -18.4140625 11.9453125 C-15.87035248 14.48856645 -15.87035248 14.48856645 -13.0625 14.07421875 C-10.52960667 13.55693772 -8.07373906 12.94896632 -5.6015625 12.1953125 C-5.55257812 11.49664062 -5.50359375 10.79796875 -5.453125 10.078125 C-5.37835938 9.16804688 -5.30359375 8.25796875 -5.2265625 7.3203125 C-5.15695313 6.41539063 -5.08734375 5.51046875 -5.015625 4.578125 C-4.41603385 1.12764765 -3.49301635 0.26223846 0 0 Z M-18.0390625 34.5078125 C-23.53485864 41.76288616 -24.64491554 49.20824877 -23.6015625 58.1953125 C-21.86109482 64.88782513 -18.15134249 70.09929897 -12.6015625 74.1953125 C-6.22903912 77.81533419 0.12253531 79.31381299 7.3984375 78.1953125 C15.16125164 76.04790681 21.47808737 72.68254153 25.7109375 65.6328125 C29.11429848 58.70004013 29.82118107 50.89568496 27.5625 43.43359375 C24.16333817 35.98509484 19.11497457 31.45438405 12.2109375 27.2578125 C0.91035958 24.10847111 -9.84639134 25.7528992 -18.0390625 34.5078125 Z " fill="#F3F3F3" transform="translate(57.6015625,7.8046875)"/>
</svg>
