<?xml version="1.0" encoding="UTF-8"?>
<svg version="1.1" xmlns="http://www.w3.org/2000/svg" width="60" height="60">
<path d="M0 0 C1.134375 0.020625 2.26875 0.04125 3.4375 0.0625 C3.4375 2.0425 3.4375 4.0225 3.4375 6.0625 C7.15486641 6.41150558 7.15486641 6.41150558 10.25 4.5625 C10.641875 4.0675 11.03375 3.5725 11.4375 3.0625 C13.4375 4.0625 15.4375 5.0625 17.4375 6.0625 C17.2725 6.825625 17.1075 7.58875 16.9375 8.375 C16.34604604 11.09846236 16.34604604 11.09846236 16.4375 14.0625 C17.00339844 14.22105469 17.56929687 14.37960938 18.15234375 14.54296875 C20.36970942 15.24831705 22.38943129 15.95403152 24.4375 17.0625 C25.4375 19.75 25.4375 19.75 25.4375 22.0625 C24.2 22.68125 24.2 22.68125 22.9375 23.3125 C22.1125 23.89 21.2875 24.4675 20.4375 25.0625 C20.4375 26.3825 20.4375 27.7025 20.4375 29.0625 C22.35772703 30.83659808 22.35772703 30.83659808 24.4375 32.0625 C24.1075 33.7125 23.7775 35.3625 23.4375 37.0625 C18.6875 38.0625 18.6875 38.0625 16.4375 38.0625 C14.07057034 40.91076598 14.07057034 40.91076598 14.8125 44.25 C15.01875 45.178125 15.225 46.10625 15.4375 47.0625 C12.4375 49.0625 12.4375 49.0625 10.5625 48.8125 C8.15680124 47.96342985 5.79234786 47.04368661 3.4375 46.0625 C3.458125 46.866875 3.47875 47.67125 3.5 48.5 C3.4375 51.0625 3.4375 51.0625 2.4375 52.0625 C0.10452567 52.10342937 -2.22955225 52.10491723 -4.5625 52.0625 C-4.5625 50.0825 -4.5625 48.1025 -4.5625 46.0625 C-5.284375 46.371875 -6.00625 46.68125 -6.75 47 C-9.41370278 48.00628772 -11.73154894 48.76450515 -14.5625 49.0625 C-15.5525 48.4025 -16.5425 47.7425 -17.5625 47.0625 C-16.9025 44.7525 -16.2425 42.4425 -15.5625 40.0625 C-18.31721394 37.81087398 -18.31721394 37.81087398 -21.125 38.125 C-21.929375 38.104375 -22.73375 38.08375 -23.5625 38.0625 C-25.5625 35.0625 -25.5625 35.0625 -25.375 33 C-24.5625 31.0625 -24.5625 31.0625 -21.5625 29.0625 C-21.5625 27.7425 -21.5625 26.4225 -21.5625 25.0625 C-22.8825 24.4025 -24.2025 23.7425 -25.5625 23.0625 C-25.5625 21.0825 -25.5625 19.1025 -25.5625 17.0625 C-21.6025 15.5775 -21.6025 15.5775 -17.5625 14.0625 C-17.5625 11.22282769 -17.96517181 8.82514289 -18.5625 6.0625 C-16.9125 5.0725 -15.2625 4.0825 -13.5625 3.0625 C-12.7271875 3.805 -12.7271875 3.805 -11.875 4.5625 C-9.18087017 6.31004367 -7.70874993 6.32468749 -4.5625 6.0625 C-4.583125 5.258125 -4.60375 4.45375 -4.625 3.625 C-4.52750049 -0.37247981 -4.13731851 0.07258454 0 0 Z M-11.375 17.6875 C-13.49963051 21.93676102 -14.31378999 26.47030076 -12.97265625 31.09765625 C-11.24754508 34.58489814 -9.682375 35.98873077 -6.3125 38.0625 C-1.63708633 39.30927698 0.73481739 39.20024579 5.4375 38.0625 C8.38458647 36.26862128 9.98572332 34.78123562 11.8125 31.875 C12.72580052 27.76514764 12.5863475 24.1202883 11.4375 20.0625 C8.9095401 16.85130769 6.35191007 14.36730336 2.4375 13.0625 C-3.176996 12.4522287 -7.16976372 13.91728816 -11.375 17.6875 Z " fill="#EFEFEF" transform="translate(30.5625,3.9375)"/>
</svg>
