<?xml version="1.0" encoding="UTF-8"?>
<svg version="1.1" xmlns="http://www.w3.org/2000/svg" width="320" height="320">
<path d="M0 0 C1.19238281 0.00193359 2.38476562 0.00386719 3.61328125 0.00585938 C12.31518661 0.1386003 12.31518661 0.1386003 14.68505859 1.93310547 C16.3822795 4.25712113 16.78270197 6.44010994 17.375 9.25 C17.61863281 10.39210938 17.86226562 11.53421875 18.11328125 12.7109375 C19.42010547 19.31877689 20.67530384 25.93439141 21.875 32.5625 C25.0532723 33.77577677 28.24370111 34.95327085 31.4375 36.125 C32.33275391 36.46724609 33.22800781 36.80949219 34.15039062 37.16210938 C39.38189925 39.05924986 43.41011238 40.45319572 48.875 38.5625 C51.55775624 36.5424517 53.79072331 34.21501396 56.0625 31.75 C56.96645508 30.80543945 56.96645508 30.80543945 57.88867188 29.84179688 C60.30554891 27.31349411 62.67960516 24.79585726 64.92578125 22.11328125 C66.875 20.5625 66.875 20.5625 69.5859375 19.890625 C74.63085818 20.92117887 77.68878126 23.9776836 81.5 27.3125 C82.25023437 27.94671875 83.00046875 28.5809375 83.7734375 29.234375 C85.20927087 30.45636085 86.63350419 31.69215086 88.04394531 32.94335938 C89.4823108 34.21525803 90.96427482 35.43786889 92.4609375 36.640625 C93.875 38.5625 93.875 38.5625 93.8984375 41.3046875 C92.59653228 45.44892016 90.69006683 48.95191132 88.5 52.6875 C88.10039062 53.39003906 87.70078125 54.09257813 87.2890625 54.81640625 C85.66487425 57.64270752 84.13875256 60.25200648 82.0234375 62.7421875 C80.63427607 64.56019902 80.63427607 64.56019902 80.98828125 67.0859375 C81.96804261 69.82236351 83.02136992 71.14186411 85.0625 73.1875 C89.33539481 77.79587003 92.07083902 82.97472135 94.875 88.5625 C99.26991833 88.65948426 103.48973218 88.55037376 107.85546875 88.01953125 C108.70947266 87.91576172 109.56347656 87.81199219 110.44335938 87.70507812 C112.20247132 87.48338542 113.96032116 87.25145875 115.71679688 87.00976562 C119.43203201 86.5731762 122.18668588 86.34722861 125.78515625 87.47265625 C128.90367423 90.59117423 129.8660167 94.02473262 131.125 98.1875 C131.50785156 99.34185547 131.50785156 99.34185547 131.8984375 100.51953125 C135.32282596 111.27932025 135.32282596 111.27932025 134.875 116.5625 C131.4432963 121.7938445 125.94051462 123.51859261 120.3125 125.6875 C118.62163422 126.35153978 116.93274927 127.02065029 115.24609375 127.6953125 C114.50286865 127.98293457 113.75964355 128.27055664 112.99389648 128.56689453 C110.58037989 129.70093309 108.7881645 130.6874453 106.875 132.5625 C106.23336328 135.16155411 106.23336328 135.16155411 106.265625 138.10546875 C106.21728516 139.71518555 106.21728516 139.71518555 106.16796875 141.35742188 C106.15378906 142.47697266 106.13960937 143.59652344 106.125 144.75 C106.09535156 145.88115234 106.06570313 147.01230469 106.03515625 148.17773438 C105.96439691 150.97272833 105.91173024 153.76688528 105.875 156.5625 C107.00131836 156.98813232 107.00131836 156.98813232 108.15039062 157.42236328 C110.48086166 158.39756935 112.38359475 159.40457054 114.46875 160.8046875 C115.10683594 161.23136719 115.74492187 161.65804687 116.40234375 162.09765625 C117.05332031 162.53980469 117.70429688 162.98195312 118.375 163.4375 C119.02597656 163.87191406 119.67695313 164.30632812 120.34765625 164.75390625 C121.61869501 165.60896869 122.88206006 166.47557076 124.13671875 167.35449219 C125.67809748 168.42566381 127.25862461 169.44000929 128.84375 170.4453125 C130.875 172.5625 130.875 172.5625 131.35546875 175.84765625 C130.83668675 179.85872683 129.76633514 183.30859203 128.1875 187 C127.91131836 187.65234619 127.63513672 188.30469238 127.35058594 188.97680664 C126.54320351 190.8464976 125.70973679 192.70486033 124.875 194.5625 C124.49214844 195.47 124.10929687 196.3775 123.71484375 197.3125 C122.62093394 199.50816128 121.74601057 200.97821573 119.875 202.5625 C113.16067671 204.76958449 105.73252711 201.49659201 99.40893555 199.16723633 C95.63636932 197.81131989 95.63636932 197.81131989 91.7109375 198.015625 C88.98431498 200.3129495 86.958083 203.07168278 84.875 205.9375 C80.18504516 212.304469 80.18504516 212.304469 77.5 214.5390625 C75.54696417 216.53910736 75.54696417 216.53910736 75.87109375 219.7109375 C77.33616617 225.331799 79.6899312 230.43218565 82.08007812 235.7109375 C82.43650391 236.52046875 82.79292969 237.33 83.16015625 238.1640625 C83.48894775 238.88932129 83.81773926 239.61458008 84.15649414 240.36181641 C84.9855366 242.90105825 85.08892477 244.90677678 84.875 247.5625 C80.10741828 253.97208872 71.00578165 259.1563574 63.875 262.5625 C60.28539271 263.07016661 58.63565007 263.04643304 55.56640625 261.09375 C54.86386719 260.4234375 54.16132813 259.753125 53.4375 259.0625 C52.67179688 258.33675781 51.90609375 257.61101562 51.1171875 256.86328125 C48.4416446 254.11781998 45.91365791 251.28610086 43.48046875 248.32421875 C41.73419501 246.40799136 40.07388658 244.94001261 37.875 243.5625 C34.09583534 243.77641498 30.8222489 244.57769947 27.1875 245.625 C23.875 246.5625 23.875 246.5625 19.875 246.5625 C19.80152344 247.85220703 19.80152344 247.85220703 19.7265625 249.16796875 C19.33656314 255.33399317 18.86896133 261.49082832 18.125 267.625 C17.94710937 269.15833984 17.94710937 269.15833984 17.765625 270.72265625 C16.50193845 274.75204276 15.41725086 276.18086483 11.875 278.5625 C7.67191506 279.2220246 3.55623422 279.12318181 -0.6875 279 C-1.82380859 278.99419922 -2.96011719 278.98839844 -4.13085938 278.98242188 C-14.0031492 278.83681288 -14.0031492 278.83681288 -17.125 276.5625 C-18.85459168 273.24419154 -19.48312031 270.0572204 -19.94140625 266.3671875 C-20.06580078 265.40425781 -20.19019531 264.44132812 -20.31835938 263.44921875 C-20.44017578 262.45535156 -20.56199219 261.46148437 -20.6875 260.4375 C-20.9362187 258.45540329 -21.18741118 256.47361499 -21.44140625 254.4921875 C-21.54912354 253.61804199 -21.65684082 252.74389648 -21.76782227 251.84326172 C-22.08487218 249.40681554 -22.08487218 249.40681554 -23.125 246.5625 C-28.01002027 244.33251597 -32.78010438 243.08045896 -38.125 242.5625 C-41.82053861 243.94986167 -43.67613468 246.54632997 -46.125 249.5625 C-47.59215251 251.1710648 -49.08730786 252.74540189 -50.60473633 254.30664062 C-51.63951497 255.37286326 -52.65609459 256.45713584 -53.65112305 257.56054688 C-56.16268633 260.20902745 -58.06930994 261.54457021 -61.55859375 262.66796875 C-65.99105902 262.53688818 -68.62221675 260.99761563 -72.125 258.5 C-72.7329541 258.08387451 -73.3409082 257.66774902 -73.96728516 257.23901367 C-75.70368692 256.03572588 -77.41595353 254.80420452 -79.125 253.5625 C-80.34316406 252.70785156 -80.34316406 252.70785156 -81.5859375 251.8359375 C-84.32918264 249.74211366 -85.98803641 248.38670568 -86.56640625 244.90625 C-85.86916193 239.62447004 -83.10039683 235.62790753 -80.41210938 231.10351562 C-77.65144435 226.23149399 -75.46943087 221.29279302 -76.125 215.5625 C-77.59374624 213.76044454 -79.0571047 212.64765159 -80.96484375 211.31640625 C-83.71093637 209.08675781 -85.4858685 206.48172264 -87.5625 203.625 C-90.79650999 199.346485 -90.79650999 199.346485 -95.8125 198.125 C-97.26789977 198.54668525 -98.70344814 199.03790755 -100.125 199.5625 C-102.49716611 200.2597153 -104.87243898 200.94640966 -107.25 201.625 C-108.40757813 201.98722656 -109.56515625 202.34945312 -110.7578125 202.72265625 C-114.1373489 203.56558006 -116.67056471 204.01703096 -120.125 203.5625 C-124.84248829 200.46118826 -126.39645215 194.80262497 -128.375 189.75 C-128.73851562 188.87279297 -129.10203125 187.99558594 -129.4765625 187.09179688 C-131.44484962 182.14518055 -132.8936433 177.97070196 -132.125 172.5625 C-130.83203125 170.8125 -130.83203125 170.8125 -128.9375 169.5625 C-127.85662109 168.83933594 -127.85662109 168.83933594 -126.75390625 168.1015625 C-122.60678277 165.67367743 -118.3676828 163.43854606 -114.078125 161.2734375 C-111.14897274 159.57638897 -109.15957239 158.26550505 -107.125 155.5625 C-106.60281108 152.69819546 -106.60281108 152.69819546 -106.8125 149.5625 C-106.86470703 147.85513672 -106.86470703 147.85513672 -106.91796875 146.11328125 C-107.2208413 140.91873125 -107.60261487 135.73970978 -108.125 130.5625 C-108.75148438 130.32402344 -109.37796875 130.08554688 -110.0234375 129.83984375 C-114.32880548 128.06672621 -118.53491466 126.10161957 -122.75 124.125 C-124.03777344 123.53235352 -124.03777344 123.53235352 -125.3515625 122.92773438 C-126.1765625 122.54037109 -127.0015625 122.15300781 -127.8515625 121.75390625 C-128.60002441 121.40529541 -129.34848633 121.05668457 -130.11962891 120.69750977 C-132.19207683 119.52453553 -133.60194513 118.38814067 -135.125 116.5625 C-135.88614325 110.05710375 -133.68380246 103.26621495 -131.875 97.0625 C-131.68292969 96.36809814 -131.49085938 95.67369629 -131.29296875 94.95825195 C-130.29791243 91.77086441 -129.38877939 89.79353436 -126.859375 87.578125 C-123.49820377 86.32968997 -121.18082514 86.43033188 -117.625 86.8125 C-116.5215625 86.92078125 -115.418125 87.0290625 -114.28125 87.140625 C-110.7115784 87.61775932 -107.26575525 88.23848716 -103.80078125 89.22265625 C-100.68763098 89.75266365 -99.09278985 89.74789797 -96.125 88.5625 C-92.35816664 84.45029519 -89.84084965 79.3462892 -87.23535156 74.45556641 C-86.125 72.5625 -86.125 72.5625 -83.7734375 69.85546875 C-81.90907511 67.71628125 -81.90907511 67.71628125 -82.06640625 65.22265625 C-83.56756093 61.45038194 -85.73924059 58.31382163 -88.0625 55 C-88.9694974 53.68761196 -89.8745099 52.3738495 -90.77734375 51.05859375 C-91.38050415 50.19512329 -91.38050415 50.19512329 -91.99584961 49.31420898 C-94.10526224 46.04176884 -95.1223225 44.14418601 -95.140625 40.16796875 C-93.81186897 35.45088484 -91.67404347 33.76376938 -87.875 30.875 C-87.30136719 30.41544922 -86.72773437 29.95589844 -86.13671875 29.48242188 C-85.00818359 28.58139323 -83.87255473 27.6891667 -82.72949219 26.80664062 C-81.25687118 25.66475434 -79.81423497 24.48447024 -78.375 23.30078125 C-75.38957574 20.99433369 -73.92694105 20.4162715 -70.125 20.5625 C-61.8203431 24.31450945 -56.36819472 31.61031578 -50.58203125 38.36328125 C-48.99715872 39.92658256 -48.99715872 39.92658256 -45.6875 39.5625 C-40.82907 38.77221933 -36.50796815 36.75048547 -32.0546875 34.71875 C-29.05526264 33.53497699 -26.3021415 33.04493646 -23.125 32.5625 C-22.99971924 31.80630371 -22.87443848 31.05010742 -22.74536133 30.27099609 C-22.16255801 26.82280922 -21.55035547 23.38046714 -20.9375 19.9375 C-20.64262695 18.15279297 -20.64262695 18.15279297 -20.34179688 16.33203125 C-17.82681683 2.480295 -14.20828063 -0.44062677 0 0 Z M-55.3125 93.125 C-65.79638317 106.30902478 -73.33311068 123.78902693 -72.4453125 140.953125 C-69.84191802 162.16126544 -62.20387858 181.23071968 -45.08203125 195.01171875 C-38.27091182 200.0569924 -31.16151951 203.82277744 -23.125 206.5625 C-22.26390625 206.88089844 -21.4028125 207.19929687 -20.515625 207.52734375 C-2.95591487 213.03378464 17.51477355 210.52095698 33.6875 202.3125 C50.27931281 192.75594115 62.48237759 179.07122965 68.09765625 160.5625 C72.84361222 142.24644881 71.81397543 123.52420587 62.875 106.5625 C52.25720475 88.77341158 37.91076068 76.40114192 17.875 70.5625 C17.13765625 70.33820313 16.4003125 70.11390625 15.640625 69.8828125 C-11.00511398 63.17543683 -37.39579056 72.99938117 -55.3125 93.125 Z " fill="#F8F8F8" transform="translate(166.125,22.4375)"/>
<path d="M0 0 C0.66 0.33 1.32 0.66 2 1 C1.06027344 1.90492187 1.06027344 1.90492187 0.1015625 2.828125 C-0.71570313 3.62734375 -1.53296875 4.4265625 -2.375 5.25 C-3.18710938 6.03890625 -3.99921875 6.8278125 -4.8359375 7.640625 C-6.75583143 9.73379455 -7.91633685 11.40397179 -9 14 C-9 10.01669933 -8.8916326 7.97646023 -6.15234375 4.9765625 C-4.14808197 3.24448442 -2.11951333 1.58842798 0 0 Z " fill="#B7B7B7" transform="translate(80,52)"/>
<path d="M0 0 C0.99 0.33 1.98 0.66 3 1 C2.360625 1.556875 1.72125 2.11375 1.0625 2.6875 C-1.19680987 5.22066561 -1.63149047 6.68341424 -2 10 C-2.33 10 -2.66 10 -3 10 C-3.36923077 3.47692308 -3.36923077 3.47692308 -1.5 1.0625 C-1.005 0.711875 -0.51 0.36125 0 0 Z " fill="#9F9F9F" transform="translate(37,192)"/>
</svg>
